<svg xmlns="http://www.w3.org/2000/svg" width="480" height="155" viewBox="0 0 480 155" fill="none"><path d="M197.059 76.914C197.059 81.132 200.478 84.551 204.696 84.551H229.473L195.971 121.561V134.502H252.332V127.263C252.332 123.045 248.913 119.626 244.695 119.626H218.708L252.332 82.616V69.675H197.059V76.914V76.914Z" fill="black"></path><path d="M306.262 77.633L294.662 113.82L282.522 77.498C280.96 72.825 276.584 69.674 271.657 69.674H260.434L285.833 134.744C284.926 137.992 282.961 139.201 280.768 139.392V139.389H273.579C269.361 139.389 265.942 142.808 265.942 147.026V154.215C265.942 154.215 281.393 154.215 281.721 154.215C284.461 154.215 286.88 153.892 288.978 153.247C291.074 152.601 292.949 151.554 294.602 150.102C296.254 148.651 297.765 146.776 299.138 144.478C300.508 142.18 301.799 139.377 303.008 136.072L327.923 69.672H317.171C312.192 69.674 307.782 72.891 306.262 77.633Z" fill="black"></path><path d="M397.829 77.112C395.087 74.251 391.942 72.093 388.395 70.641C384.846 69.19 381.178 68.464 377.389 68.464C372.551 68.464 368.539 69.452 365.355 71.427C362.169 73.404 359.447 75.923 357.191 78.986V77.31C357.191 73.092 353.772 69.673 349.554 69.673H338.807V146.216C338.807 150.434 342.226 153.853 346.444 153.853H357.191V126.035C359.368 128.617 362.048 130.873 365.234 132.808C368.418 134.743 372.47 135.711 377.389 135.711C381.259 135.711 384.967 134.985 388.516 133.534C392.063 132.083 395.187 129.927 397.89 127.063C400.59 124.202 402.767 120.695 404.421 116.541C406.073 112.389 406.901 107.612 406.901 102.209V101.967C406.901 96.566 406.073 91.789 404.421 87.635C402.767 83.483 400.57 79.976 397.829 77.112ZM388.516 102.209C388.516 104.951 388.093 107.41 387.246 109.587C386.4 111.764 385.25 113.639 383.799 115.211C382.348 116.784 380.673 117.993 378.78 118.839C376.884 119.686 374.849 120.109 372.672 120.109C370.495 120.109 368.458 119.686 366.564 118.839C364.668 117.993 363.015 116.783 361.605 115.211C360.193 113.639 359.065 111.745 358.219 109.526C357.373 107.309 356.949 104.87 356.949 102.209V101.967C356.949 99.306 357.373 96.869 358.219 94.65C359.065 92.433 360.194 90.538 361.605 88.965C363.015 87.393 364.668 86.183 366.564 85.337C368.458 84.49 370.495 84.067 372.672 84.067C374.849 84.067 376.884 84.49 378.78 85.337C380.674 86.183 382.348 87.393 383.799 88.965C385.25 90.538 386.4 92.433 387.246 94.65C388.092 96.869 388.516 99.307 388.516 101.967V102.209Z" fill="black"></path><path d="M478.125 90.417C476.874 86.184 474.939 82.435 472.32 79.169C469.699 75.903 466.412 73.303 462.463 71.368C458.511 69.433 453.834 68.465 448.433 68.465C443.675 68.465 439.341 69.353 435.431 71.126C431.519 72.901 428.153 75.32 425.332 78.383C422.509 81.448 420.313 85.035 418.741 89.147C417.168 93.259 416.382 97.613 416.382 102.209V102.451C416.382 107.451 417.229 111.987 418.922 116.058C420.615 120.131 422.974 123.659 425.998 126.641C429.022 129.625 432.609 131.923 436.762 133.535C440.914 135.147 445.41 135.954 450.247 135.954C456.132 135.954 461.253 134.885 465.607 132.749C469.961 130.614 473.669 127.65 476.734 123.859L471.216 118.975C468.635 116.691 464.879 116.474 461.963 118.311C457.488 121.13 452.794 121.198 450.489 121.198C446.377 121.198 442.93 120.13 440.148 117.993C437.366 115.857 435.531 112.692 434.645 108.499H479.759C479.838 107.613 479.899 106.766 479.94 105.959C479.98 105.154 480 104.387 480 103.661C480 99.064 479.375 94.65 478.125 90.417ZM434.403 97.009C435.129 92.817 436.68 89.47 439.059 86.97C441.437 84.472 444.562 83.221 448.432 83.221C452.302 83.221 455.405 84.491 457.745 87.031C460.083 89.571 461.534 92.897 462.099 97.009H434.403Z" fill="black"></path><path d="M161.203 69.655H57.9894C54.4274 69.655 51.1714 71.667 49.5784 74.853L23.1814 127.647C21.6184 130.773 23.8914 134.451 27.3864 134.451H130.6C134.162 134.451 137.418 132.439 139.011 129.253L165.408 76.459C166.971 73.334 164.698 69.655 161.203 69.655Z" fill="url(#paint0_linear_1_129)"></path><path d="M116.333 59.598L142.73 6.804C144.293 3.678 142.02 0 138.525 0H35.3104C31.7484 0 28.4924 2.012 26.8994 5.198L0.502427 57.992C-1.06057 61.118 1.21243 64.796 4.70743 64.796H107.921C111.484 64.796 114.74 62.783 116.333 59.598Z" fill="url(#paint1_linear_1_129)"></path><defs><linearGradient id="paint0_linear_1_129" x1="136.5" y1="134" x2="52" y2="70" gradientUnits="userSpaceOnUse"><stop stop-color="#007DC3"></stop><stop offset="1" stop-color="#22BDE1"></stop></linearGradient><linearGradient id="paint1_linear_1_129" x1="113.5" y1="65" x2="31" y2="-3.80144e-06" gradientUnits="userSpaceOnUse"><stop stop-color="#E94578"></stop><stop offset="1" stop-color="#FC8440"></stop></linearGradient></defs></svg>